<svg xmlns="http://www.w3.org/2000/svg" width="1120" height="1792" viewBox="0 0 1120 1792" role="img" aria-labelledby="title desc">
<title id="title">Personal AgentOS</title><desc id="desc">Illustrative interaction patterns and product direction. No observed live run or shipped integration is claimed.</desc>
<style>text{font-family:Arial,"Noto Sans",sans-serif;fill:#243247} .bold{font-weight:700} .muted{fill:#526174} .blue{fill:#245b92}</style>
<rect width="1120" height="1792" fill="#fff"/>
<text x="28" y="58.0" font-size="34" class="bold" text-anchor="start">Personal AgentOS</text>
<text x="28" y="100.9" font-size="23" class="blue" text-anchor="start">One PA. Your work and context stay yours.</text>
<text x="28" y="142.95" font-size="20" class="muted" text-anchor="start">Interaction model · product direction</text>
<circle cx="40" cy="202.95" r="20" fill="#e9f0f6" stroke="none"/>
<text x="40" y="209.95" font-size="18" class="blue bold" text-anchor="middle">01</text>
<text x="74" y="209.95" font-size="28" class="bold" text-anchor="start">From answers and commands to continuing work</text>
<rect x="28.0" y="245.95" width="341.3333333333333" height="496.5" rx="16" fill="#f7f9fc" stroke="#d4dce5"/>
<circle cx="198.66666666666666" cy="301.95" r="39" fill="#e9eff7" stroke="none"/>
<g transform="translate(168.66666666666666 269.95) scale(0.9375)" fill="none" stroke="#245b92" stroke-width="3" stroke-linecap="round" stroke-linejoin="round"><path d="M8 45V18m0 27h37M15 35l9-10 9 4 10-15"/><circle cx="43" cy="18" r="10"/><path d="m50 26 8 9"/></g>
<text x="48.0" y="380.95" font-size="25" class="bold" text-anchor="start">Assistant</text>
<text x="48.0" y="415.95" font-size="22" class="blue bold" text-anchor="start">Answers</text>
<g transform="translate(46.0 446.95) scale(0.375)" fill="none" stroke="#53657a" stroke-width="3" stroke-linecap="round" stroke-linejoin="round"><circle cx="32" cy="17" r="10"/><path d="M13 57v-9a19 19 0 0 1 38 0v9"/></g>
<rect x="82.0" y="433.95" width="269.3333333333333" height="85.4" rx="12" fill="#edf4fb" stroke="#edf4fb"/>
<text x="96.0" y="468.95" font-size="22" class="" text-anchor="start">What’s the current</text>
<text x="96.0" y="498.65" font-size="22" class="" text-anchor="start">price of NVIDIA?</text>
<g transform="translate(46.0 544.35) scale(0.375)" fill="none" stroke="#257a69" stroke-width="3" stroke-linecap="round" stroke-linejoin="round"><circle cx="32" cy="32" r="24"/><circle cx="32" cy="32" r="9"/><path d="M32 0v8m0 48v8M0 32h8m48 0h8"/></g>
<rect x="82.0" y="531.35" width="269.3333333333333" height="115.10000000000001" rx="12" fill="#ffffff" stroke="#d3dedf"/>
<text x="96.0" y="566.35" font-size="22" class="" text-anchor="start">I’ll check the</text>
<text x="96.0" y="596.0500000000001" font-size="22" class="" text-anchor="start">current</text>
<text x="96.0" y="625.75" font-size="22" class="" text-anchor="start">information.</text>
<text x="48.0" y="688.45" font-size="20" class="blue bold" text-anchor="start">Question → Search →</text>
<text x="48.0" y="715.45" font-size="20" class="blue bold" text-anchor="start">Answer</text>
<rect x="389.3333333333333" y="245.95" width="341.3333333333333" height="496.5" rx="16" fill="#f7f9fc" stroke="#d4dce5"/>
<circle cx="560.0" cy="301.95" r="39" fill="#e9eff7" stroke="none"/>
<g transform="translate(530.0 269.95) scale(0.9375)" fill="none" stroke="#245b92" stroke-width="3" stroke-linecap="round" stroke-linejoin="round"><path d="M14 29v-7a18 18 0 0 1 36 0v7M14 21h7v17h-7zm29 0h7v17h-7zM8 42h8l5 12h26l6-12H23"/><circle cx="25" cy="60" r="2"/><circle cx="44" cy="60" r="2"/></g>
<text x="409.3333333333333" y="380.95" font-size="25" class="bold" text-anchor="start">Computer agent</text>
<text x="409.3333333333333" y="415.95" font-size="22" class="blue bold" text-anchor="start">Acts</text>
<g transform="translate(407.3333333333333 446.95) scale(0.375)" fill="none" stroke="#53657a" stroke-width="3" stroke-linecap="round" stroke-linejoin="round"><circle cx="32" cy="17" r="10"/><path d="M13 57v-9a19 19 0 0 1 38 0v9"/></g>
<rect x="443.3333333333333" y="433.95" width="269.3333333333333" height="115.10000000000001" rx="12" fill="#edf4fb" stroke="#edf4fb"/>
<text x="457.3333333333333" y="468.95" font-size="22" class="" text-anchor="start">Add these</text>
<text x="457.3333333333333" y="498.65" font-size="22" class="" text-anchor="start">headphones to my</text>
<text x="457.3333333333333" y="528.35" font-size="22" class="" text-anchor="start">Amazon cart.</text>
<g transform="translate(407.3333333333333 574.05) scale(0.375)" fill="none" stroke="#257a69" stroke-width="3" stroke-linecap="round" stroke-linejoin="round"><circle cx="32" cy="32" r="24"/><circle cx="32" cy="32" r="9"/><path d="M32 0v8m0 48v8M0 32h8m48 0h8"/></g>
<rect x="443.3333333333333" y="561.05" width="269.3333333333333" height="85.4" rx="12" fill="#ffffff" stroke="#d3dedf"/>
<text x="457.3333333333333" y="596.05" font-size="22" class="" text-anchor="start">I’ll open the item</text>
<text x="457.3333333333333" y="625.75" font-size="22" class="" text-anchor="start">in the browser.</text>
<text x="409.3333333333333" y="688.4499999999999" font-size="20" class="blue bold" text-anchor="start">Command → Browser / tool</text>
<text x="409.3333333333333" y="715.4499999999999" font-size="20" class="blue bold" text-anchor="start">→ Action / handoff</text>
<rect x="750.6666666666666" y="245.95" width="341.3333333333333" height="496.5" rx="16" fill="#eff7f3" stroke="#b7d1c5"/>
<circle cx="921.3333333333333" cy="301.95" r="39" fill="#e0eee6" stroke="none"/>
<g transform="translate(891.3333333333333 269.95) scale(0.9375)" fill="none" stroke="#257a69" stroke-width="3" stroke-linecap="round" stroke-linejoin="round"><rect x="12" y="10" width="40" height="46" rx="5"/><path d="m20 24 3 3 5-7m5 5h11M20 38h7m6 0h11M20 47h7m6 0h11"/></g>
<text x="770.6666666666666" y="380.95" font-size="25" class="bold" text-anchor="start">Personal AgentOS</text>
<text x="770.6666666666666" y="415.95" font-size="22" class="blue bold" text-anchor="start">Carries work forward</text>
<g transform="translate(768.6666666666666 446.95) scale(0.375)" fill="none" stroke="#53657a" stroke-width="3" stroke-linecap="round" stroke-linejoin="round"><circle cx="32" cy="17" r="10"/><path d="M13 57v-9a19 19 0 0 1 38 0v9"/></g>
<rect x="804.6666666666666" y="433.95" width="269.3333333333333" height="85.4" rx="12" fill="#edf4fb" stroke="#edf4fb"/>
<text x="818.6666666666666" y="468.95" font-size="22" class="" text-anchor="start">Keep track of next</text>
<text x="818.6666666666666" y="498.65" font-size="22" class="" text-anchor="start">week’s meeting.</text>
<g transform="translate(768.6666666666666 544.35) scale(0.375)" fill="none" stroke="#257a69" stroke-width="3" stroke-linecap="round" stroke-linejoin="round"><circle cx="32" cy="32" r="24"/><circle cx="32" cy="32" r="9"/><path d="M32 0v8m0 48v8M0 32h8m48 0h8"/></g>
<rect x="804.6666666666666" y="531.35" width="269.3333333333333" height="115.10000000000001" rx="12" fill="#ffffff" stroke="#d3dedf"/>
<text x="818.6666666666666" y="566.35" font-size="22" class="" text-anchor="start">I’ll keep the open</text>
<text x="818.6666666666666" y="596.0500000000001" font-size="22" class="" text-anchor="start">decision and next</text>
<text x="818.6666666666666" y="625.75" font-size="22" class="" text-anchor="start">step in view.</text>
<text x="770.6666666666666" y="688.45" font-size="20" class="blue bold" text-anchor="start">Intent → Open work → Next</text>
<text x="770.6666666666666" y="715.45" font-size="20" class="blue bold" text-anchor="start">preparation</text>
<circle cx="40" cy="795.45" r="20" fill="#e9f0f6" stroke="none"/>
<text x="40" y="802.45" font-size="18" class="blue bold" text-anchor="middle">02</text>
<text x="74" y="802.45" font-size="28" class="bold" text-anchor="start">One PA, with work and authority held by you</text>
<g transform="translate(71 935.45) scale(1.0)" fill="none" stroke="#53657a" stroke-width="3" stroke-linecap="round" stroke-linejoin="round"><circle cx="32" cy="17" r="10"/><path d="M13 57v-9a19 19 0 0 1 38 0v9"/></g>
<text x="103" y="1036.45" font-size="23" class="bold" text-anchor="middle">You</text>
<rect x="220" y="838.45" width="654" height="680.95" rx="18" fill="#f0f6f9" stroke="#b6cad9"/>
<text x="240" y="884.45" font-size="26" class="bold" text-anchor="start">Personal AgentOS</text>
<text x="240" y="917.45" font-size="20" class="muted" text-anchor="start">Your environment holds the PA’s state.</text>
<rect x="240" y="940.45" width="614" height="54" rx="12" fill="#e3f0e9" stroke="#bad3c8"/>
<g transform="translate(258 953.45) scale(0.4375)" fill="none" stroke="#257a69" stroke-width="3" stroke-linecap="round" stroke-linejoin="round"><circle cx="32" cy="32" r="24"/><circle cx="32" cy="32" r="9"/><path d="M32 0v8m0 48v8M0 32h8m48 0h8"/></g>
<text x="557.0" y="973.45" font-size="22" class="bold" text-anchor="middle">PA · the agent you talk to</text>
<path d="M153 967.45H240" fill="none" stroke="#8296a9" stroke-width="1.6"/>
<path d="M160 961.45L153 967.45L160 973.45M233 961.45L240 967.45L233 973.45" fill="none" stroke="#8296a9" stroke-width="1.6"/>
<rect x="240" y="1017.45" width="614" height="105.6" rx="10" fill="#fff" stroke="#d8e1e7"/>
<g transform="translate(255 1038.45) scale(0.59375)" fill="none" stroke="#427665" stroke-width="3" stroke-linecap="round" stroke-linejoin="round"><circle cx="32" cy="32" r="8"/><circle cx="12" cy="12" r="5"/><circle cx="52" cy="15" r="5"/><circle cx="13" cy="52" r="5"/><circle cx="51" cy="51" r="5"/><path d="m16 16 10 10m12 0 10-8M17 48l9-10m12 0 9 9"/></g>
<text x="312" y="1047.45" font-size="20" class="bold" text-anchor="start">One meeting, different links</text>
<text x="312" y="1080.45" font-size="18" class="muted" text-anchor="start">Calendar → time; project → decision; invite ≠</text>
<text x="312" y="1104.75" font-size="18" class="muted" text-anchor="start">commitment</text>
<path d="M547.0 1124.05 L547.0 1135.05" fill="none" stroke="#8492a3" stroke-width="1.6"/>
<path d="M543.0 1130.05 L547.0 1135.05 L551.0 1130.05" fill="none" stroke="#8492a3" stroke-width="1.6"/>
<rect x="240" y="1137.05" width="614" height="94" rx="10" fill="#fff" stroke="#d8e1e7"/>
<g transform="translate(255 1158.05) scale(0.59375)" fill="none" stroke="#427665" stroke-width="3" stroke-linecap="round" stroke-linejoin="round"><rect x="12" y="10" width="40" height="46" rx="5"/><path d="m20 24 3 3 5-7m5 5h11M20 38h7m6 0h11M20 47h7m6 0h11"/></g>
<text x="312" y="1167.05" font-size="20" class="bold" text-anchor="start">Open work</text>
<text x="312" y="1200.05" font-size="18" class="muted" text-anchor="start">Unsettled decision → next preparation</text>
<path d="M547.0 1232.05 L547.0 1243.05" fill="none" stroke="#8492a3" stroke-width="1.6"/>
<path d="M543.0 1238.05 L547.0 1243.05 L551.0 1238.05" fill="none" stroke="#8492a3" stroke-width="1.6"/>
<rect x="240" y="1245.05" width="614" height="94" rx="10" fill="#fff" stroke="#d8e1e7"/>
<g transform="translate(255 1266.05) scale(0.59375)" fill="none" stroke="#496d92" stroke-width="3" stroke-linecap="round" stroke-linejoin="round"><path d="M32 6 52 14v16c0 13-9 21-20 28-11-7-20-15-20-28V14z"/><circle cx="32" cy="28" r="6"/><path d="M32 34v10"/></g>
<text x="312" y="1275.05" font-size="20" class="bold" text-anchor="start">Authority</text>
<text x="312" y="1308.05" font-size="18" class="muted" text-anchor="start">A role does not grant permission to act</text>
<path d="M547.0 1340.05 L547.0 1351.05" fill="none" stroke="#8492a3" stroke-width="1.6"/>
<path d="M543.0 1346.05 L547.0 1351.05 L551.0 1346.05" fill="none" stroke="#8492a3" stroke-width="1.6"/>
<rect x="240" y="1353.05" width="614" height="94" rx="10" fill="#fff" stroke="#d8e1e7"/>
<g transform="translate(255 1374.05) scale(0.59375)" fill="none" stroke="#496d92" stroke-width="3" stroke-linecap="round" stroke-linejoin="round"><path d="M14 8h27l9 9v40H14zM41 8v12h9M22 29h19m-19 8h13m-13 8 6 6 13-13"/></g>
<text x="312" y="1383.05" font-size="20" class="bold" text-anchor="start">Evidence &amp; events</text>
<text x="312" y="1416.05" font-size="18" class="muted" text-anchor="start">Proposed ≠ done; record when to revisit</text>
<text x="547.0" y="1492.0500000000002" font-size="21" class="blue bold" text-anchor="middle">Judgment / orchestration</text>
<path d="M547.0 1523.4 L547.0 1546.4" fill="none" stroke="#8492a3" stroke-width="1.6"/>
<path d="M543.0 1541.4 L547.0 1546.4 L551.0 1541.4" fill="none" stroke="#8492a3" stroke-width="1.6"/>
<rect x="220.0" y="1553.4" width="210.0" height="109" rx="12" fill="#fafbfd" stroke="#d4dce5"/>
<g transform="translate(306.0 1565.4) scale(0.59375)" fill="none" stroke="#526b91" stroke-width="3" stroke-linecap="round" stroke-linejoin="round"><rect x="16" y="16" width="32" height="32" rx="6"/><path d="M24 6v10m16-10v10M24 48v10m16-10v10M6 24h10M6 40h10m32-16h10M48 40h10M26 26h12v12H26z"/></g>
<text x="325.0" y="1634.4" font-size="20" class="muted" text-anchor="middle">Replaceable AI</text>
<rect x="442.0" y="1553.4" width="210.0" height="109" rx="12" fill="#fafbfd" stroke="#d4dce5"/>
<g transform="translate(528.0 1565.4) scale(0.59375)" fill="none" stroke="#526b91" stroke-width="3" stroke-linecap="round" stroke-linejoin="round"><path d="m12 8 11 11-6 6L6 14c-4 14 6 23 18 17l25 25 7-7-25-25C37 12 28 2 16 6l10 10-7 7"/></g>
<text x="547.0" y="1634.4" font-size="20" class="muted" text-anchor="middle">Tools</text>
<rect x="664.0" y="1553.4" width="210.0" height="109" rx="12" fill="#fafbfd" stroke="#d4dce5"/>
<g transform="translate(750.0 1565.4) scale(0.59375)" fill="none" stroke="#526b91" stroke-width="3" stroke-linecap="round" stroke-linejoin="round"><path d="M16 45a12 12 0 0 1-3-24 17 17 0 0 1 32-3 13 13 0 0 1 3 27H16zM22 52v8m20-8v8"/></g>
<text x="769.0" y="1634.4" font-size="20" class="muted" text-anchor="middle">Services</text>
<g transform="translate(908 884.45) scale(0.59375)" fill="none" stroke="#257a69" stroke-width="3" stroke-linecap="round" stroke-linejoin="round"><circle cx="32" cy="32" r="24"/><circle cx="32" cy="32" r="9"/><path d="M32 0v8m0 48v8M0 32h8m48 0h8"/></g>
<text x="908" y="967.45" font-size="27" class="blue bold" text-anchor="start">Same PA.</text>
<text x="908" y="1011.9000000000001" font-size="27" class="blue bold" text-anchor="start">Different</text>
<text x="908" y="1048.3500000000001" font-size="27" class="blue bold" text-anchor="start">AI.</text>
<text x="908" y="1099.8000000000002" font-size="22" class="muted" text-anchor="start">Open work and</text>
<text x="908" y="1129.5000000000002" font-size="22" class="muted" text-anchor="start">evidence stay</text>
<text x="908" y="1159.2000000000003" font-size="22" class="muted" text-anchor="start">with you.</text>
<text x="908" y="1216.9" font-size="22" class="blue bold" text-anchor="start">AI A → AI B</text>
<path d="M28 1698.4H1092" fill="none" stroke="#d4dce5" stroke-width="1.6"/>
<text x="28" y="1734.4" font-size="20" class="muted" text-anchor="start">Illustrative interaction patterns and product direction. No observed live run or shipped</text>
<text x="28" y="1761.4" font-size="20" class="muted" text-anchor="start">integration is claimed.</text>
</svg>
