<svg xmlns="http://www.w3.org/2000/svg" width="420" height="3008" viewBox="0 0 420 3008" role="img" aria-labelledby="title desc">
<title id="title">Personal AgentOS</title><desc id="desc">交互方式与产品方向的示例，并非实际观测的运行，也不代表已发布的集成功能。</desc>
<style>text{font-family:Arial,"Noto Sans",sans-serif;fill:#243247} .bold{font-weight:700} .muted{fill:#526174} .blue{fill:#245b92}</style>
<rect width="420" height="3008" fill="#fff"/>
<text x="20" y="58.0" font-size="34" class="bold" text-anchor="start">Personal AgentOS</text>
<text x="20" y="100.9" font-size="23" class="blue" text-anchor="start">同一个 PA，工作与上下文由你掌</text>
<text x="20" y="131.95000000000002" font-size="23" class="blue" text-anchor="start">控。</text>
<text x="20" y="174.0" font-size="20" class="muted" text-anchor="start">交互方式 · 产品方向</text>
<circle cx="40" cy="234.0" r="20" fill="#e9f0f6" stroke="none"/>
<text x="40" y="241.0" font-size="18" class="blue bold" text-anchor="middle">01</text>
<text x="74" y="241.0" font-size="28" class="bold" text-anchor="start">从回答和执行，到持续推</text>
<text x="74" y="278.8" font-size="28" class="bold" text-anchor="start">进工作</text>
<rect x="20" y="310.6" width="380" height="410.09999999999997" rx="16" fill="#f7f9fc" stroke="#d4dce5"/>
<circle cx="210.0" cy="366.6" r="39" fill="#e9eff7" stroke="none"/>
<g transform="translate(180.0 334.6) scale(0.9375)" fill="none" stroke="#245b92" stroke-width="3" stroke-linecap="round" stroke-linejoin="round"><path d="M8 45V18m0 27h37M15 35l9-10 9 4 10-15"/><circle cx="43" cy="18" r="10"/><path d="m50 26 8 9"/></g>
<text x="40" y="445.6" font-size="25" class="bold" text-anchor="start">Assistant</text>
<text x="40" y="480.6" font-size="22" class="blue bold" text-anchor="start">回答问题</text>
<g transform="translate(38 511.6) scale(0.375)" fill="none" stroke="#53657a" stroke-width="3" stroke-linecap="round" stroke-linejoin="round"><circle cx="32" cy="17" r="10"/><path d="M13 57v-9a19 19 0 0 1 38 0v9"/></g>
<rect x="74" y="498.6" width="308" height="85.4" rx="12" fill="#edf4fb" stroke="#edf4fb"/>
<text x="88" y="533.6" font-size="22" class="" text-anchor="start">NVIDIA 现在的股价是多</text>
<text x="88" y="563.3000000000001" font-size="22" class="" text-anchor="start">少？</text>
<g transform="translate(38 609.0) scale(0.375)" fill="none" stroke="#257a69" stroke-width="3" stroke-linecap="round" stroke-linejoin="round"><circle cx="32" cy="32" r="24"/><circle cx="32" cy="32" r="9"/><path d="M32 0v8m0 48v8M0 32h8m48 0h8"/></g>
<rect x="74" y="596.0" width="308" height="55.7" rx="12" fill="#ffffff" stroke="#d3dedf"/>
<text x="88" y="631.0" font-size="22" class="" text-anchor="start">我来查一下最新信息。</text>
<text x="40" y="693.7" font-size="20" class="blue bold" text-anchor="start">提问 → 搜索 → 回答</text>
<rect x="20" y="740.7" width="380" height="437.09999999999997" rx="16" fill="#f7f9fc" stroke="#d4dce5"/>
<circle cx="210.0" cy="796.7" r="39" fill="#e9eff7" stroke="none"/>
<g transform="translate(180.0 764.7) scale(0.9375)" fill="none" stroke="#245b92" stroke-width="3" stroke-linecap="round" stroke-linejoin="round"><path d="M14 29v-7a18 18 0 0 1 36 0v7M14 21h7v17h-7zm29 0h7v17h-7zM8 42h8l5 12h26l6-12H23"/><circle cx="25" cy="60" r="2"/><circle cx="44" cy="60" r="2"/></g>
<text x="40" y="875.7" font-size="25" class="bold" text-anchor="start">任务型智能体</text>
<text x="40" y="910.7" font-size="22" class="blue bold" text-anchor="start">执行指令</text>
<g transform="translate(38 941.7) scale(0.375)" fill="none" stroke="#53657a" stroke-width="3" stroke-linecap="round" stroke-linejoin="round"><circle cx="32" cy="17" r="10"/><path d="M13 57v-9a19 19 0 0 1 38 0v9"/></g>
<rect x="74" y="928.7" width="308" height="85.4" rx="12" fill="#edf4fb" stroke="#edf4fb"/>
<text x="88" y="963.7" font-size="22" class="" text-anchor="start">把这款耳机放进我的</text>
<text x="88" y="993.4000000000001" font-size="22" class="" text-anchor="start">Amazon 购物车。</text>
<g transform="translate(38 1039.1000000000001) scale(0.375)" fill="none" stroke="#257a69" stroke-width="3" stroke-linecap="round" stroke-linejoin="round"><circle cx="32" cy="32" r="24"/><circle cx="32" cy="32" r="9"/><path d="M32 0v8m0 48v8M0 32h8m48 0h8"/></g>
<rect x="74" y="1026.1000000000001" width="308" height="55.7" rx="12" fill="#ffffff" stroke="#d3dedf"/>
<text x="88" y="1061.1000000000001" font-size="22" class="" text-anchor="start">我先在浏览器里打开商品。</text>
<text x="40" y="1123.8000000000002" font-size="20" class="blue bold" text-anchor="start">指令 → 浏览器与工具 → 执行与权限</text>
<text x="40" y="1150.8000000000002" font-size="20" class="blue bold" text-anchor="start">交接</text>
<rect x="20" y="1197.8" width="380" height="410.1" rx="16" fill="#eff7f3" stroke="#b7d1c5"/>
<circle cx="210.0" cy="1253.8" r="39" fill="#e0eee6" stroke="none"/>
<g transform="translate(180.0 1221.8) scale(0.9375)" fill="none" stroke="#257a69" stroke-width="3" stroke-linecap="round" stroke-linejoin="round"><rect x="12" y="10" width="40" height="46" rx="5"/><path d="m20 24 3 3 5-7m5 5h11M20 38h7m6 0h11M20 47h7m6 0h11"/></g>
<text x="40" y="1332.8" font-size="25" class="bold" text-anchor="start">Personal AgentOS</text>
<text x="40" y="1367.8" font-size="22" class="blue bold" text-anchor="start">持续推进受托工作</text>
<g transform="translate(38 1398.8) scale(0.375)" fill="none" stroke="#53657a" stroke-width="3" stroke-linecap="round" stroke-linejoin="round"><circle cx="32" cy="17" r="10"/><path d="M13 57v-9a19 19 0 0 1 38 0v9"/></g>
<rect x="74" y="1385.8" width="308" height="55.7" rx="12" fill="#edf4fb" stroke="#edf4fb"/>
<text x="88" y="1420.8" font-size="22" class="" text-anchor="start">下周的会议帮我留意一下。</text>
<g transform="translate(38 1466.5) scale(0.375)" fill="none" stroke="#257a69" stroke-width="3" stroke-linecap="round" stroke-linejoin="round"><circle cx="32" cy="32" r="24"/><circle cx="32" cy="32" r="9"/><path d="M32 0v8m0 48v8M0 32h8m48 0h8"/></g>
<rect x="74" y="1453.5" width="308" height="85.4" rx="12" fill="#ffffff" stroke="#d3dedf"/>
<text x="88" y="1488.5" font-size="22" class="" text-anchor="start">我会记下未决事项，准备下</text>
<text x="88" y="1518.2" font-size="22" class="" text-anchor="start">一步。</text>
<text x="40" y="1580.9" font-size="20" class="blue bold" text-anchor="start">意图 → 未完工作 → 下一步准备</text>
<circle cx="40" cy="1680.9" r="20" fill="#e9f0f6" stroke="none"/>
<text x="40" y="1687.9" font-size="18" class="blue bold" text-anchor="middle">02</text>
<text x="74" y="1687.9" font-size="28" class="bold" text-anchor="start">同一个 PA，工作与权限</text>
<text x="74" y="1725.7" font-size="28" class="bold" text-anchor="start">由你掌控</text>
<g transform="translate(87 1757.5) scale(0.71875)" fill="none" stroke="#53657a" stroke-width="3" stroke-linecap="round" stroke-linejoin="round"><circle cx="32" cy="17" r="10"/><path d="M13 57v-9a19 19 0 0 1 38 0v9"/></g>
<g transform="translate(277 1757.5) scale(0.71875)" fill="none" stroke="#257a69" stroke-width="3" stroke-linecap="round" stroke-linejoin="round"><circle cx="32" cy="32" r="24"/><circle cx="32" cy="32" r="9"/><path d="M32 0v8m0 48v8M0 32h8m48 0h8"/></g>
<path d="M148 1781.5H262" fill="none" stroke="#8296a9" stroke-width="1.6"/>
<path d="M155 1775.5L148 1781.5L155 1787.5M255 1775.5L262 1781.5L255 1787.5" fill="none" stroke="#8296a9" stroke-width="1.6"/>
<text x="110" y="1833.5" font-size="22" class="bold" text-anchor="middle">你</text>
<text x="300" y="1831.5" font-size="20" class="bold" text-anchor="middle">PA · 与你对话的</text>
<text x="300" y="1858.5" font-size="20" class="bold" text-anchor="middle">智能体</text>
<path d="M300 1877.5V1897.5H210.0V1909.5" fill="none" stroke="#8296a9" stroke-width="1.6"/>
<rect x="20" y="1909.5" width="380" height="677.15" rx="18" fill="#f0f6f9" stroke="#b6cad9"/>
<text x="40" y="1955.5" font-size="26" class="bold" text-anchor="start">Personal AgentOS</text>
<text x="40" y="1988.5" font-size="20" class="muted" text-anchor="start">你的环境保留 PA 的状态。</text>
<rect x="40" y="2017.5" width="340" height="113.7" rx="10" fill="#fff" stroke="#d8e1e7"/>
<g transform="translate(55 2038.5) scale(0.59375)" fill="none" stroke="#427665" stroke-width="3" stroke-linecap="round" stroke-linejoin="round"><path d="M16 12h34v42H16zM10 20h12m-12 12h12m-12 12h12M29 22h13m-13 9h13m-13 9h9"/></g>
<text x="112" y="2049.5" font-size="22" class="bold" text-anchor="start">一场有来源的会议</text>
<text x="112" y="2085.2" font-size="20" class="muted" text-anchor="start">日程邀请 + 提案 + 此前</text>
<text x="112" y="2112.2" font-size="20" class="muted" text-anchor="start">的决定</text>
<path d="M210.0 2132.2 L210.0 2143.2" fill="none" stroke="#8492a3" stroke-width="1.6"/>
<path d="M206.0 2138.2 L210.0 2143.2 L214.0 2138.2" fill="none" stroke="#8492a3" stroke-width="1.6"/>
<rect x="40" y="2145.2" width="340" height="113.7" rx="10" fill="#fff" stroke="#d8e1e7"/>
<g transform="translate(55 2166.2) scale(0.59375)" fill="none" stroke="#427665" stroke-width="3" stroke-linecap="round" stroke-linejoin="round"><circle cx="32" cy="32" r="8"/><circle cx="12" cy="12" r="5"/><circle cx="52" cy="15" r="5"/><circle cx="13" cy="52" r="5"/><circle cx="51" cy="51" r="5"/><path d="m16 16 10 10m12 0 10-8M17 48l9-10m12 0 9 9"/></g>
<text x="112" y="2177.2" font-size="22" class="bold" text-anchor="start">不同的关系</text>
<text x="112" y="2212.8999999999996" font-size="20" class="muted" text-anchor="start">日程: 时间; 项目: 决定;</text>
<text x="112" y="2239.8999999999996" font-size="20" class="muted" text-anchor="start">邀请 ≠ 接受</text>
<path d="M210.0 2259.8999999999996 L210.0 2270.8999999999996" fill="none" stroke="#8492a3" stroke-width="1.6"/>
<path d="M206.0 2265.8999999999996 L210.0 2270.8999999999996 L214.0 2265.8999999999996" fill="none" stroke="#8492a3" stroke-width="1.6"/>
<rect x="40" y="2272.8999999999996" width="340" height="113.7" rx="10" fill="#fff" stroke="#d8e1e7"/>
<g transform="translate(55 2293.8999999999996) scale(0.59375)" fill="none" stroke="#496d92" stroke-width="3" stroke-linecap="round" stroke-linejoin="round"><rect x="12" y="10" width="40" height="46" rx="5"/><path d="m20 24 3 3 5-7m5 5h11M20 38h7m6 0h11M20 47h7m6 0h11"/></g>
<text x="112" y="2304.8999999999996" font-size="22" class="bold" text-anchor="start">持续中的工作</text>
<text x="112" y="2340.5999999999995" font-size="20" class="muted" text-anchor="start">会前材料 → 会议记录 →</text>
<text x="112" y="2367.5999999999995" font-size="20" class="muted" text-anchor="start">下一步</text>
<path d="M210.0 2387.5999999999995 L210.0 2398.5999999999995" fill="none" stroke="#8492a3" stroke-width="1.6"/>
<path d="M206.0 2393.5999999999995 L210.0 2398.5999999999995 L214.0 2393.5999999999995" fill="none" stroke="#8492a3" stroke-width="1.6"/>
<rect x="40" y="2400.5999999999995" width="340" height="113.7" rx="10" fill="#fff" stroke="#d8e1e7"/>
<g transform="translate(55 2421.5999999999995) scale(0.59375)" fill="none" stroke="#496d92" stroke-width="3" stroke-linecap="round" stroke-linejoin="round"><path d="M32 6 52 14v16c0 13-9 21-20 28-11-7-20-15-20-28V14z"/><circle cx="32" cy="28" r="6"/><path d="M32 34v10"/></g>
<text x="112" y="2432.5999999999995" font-size="22" class="bold" text-anchor="start">权限与证据</text>
<text x="112" y="2468.2999999999993" font-size="20" class="muted" text-anchor="start">草稿 ≠ 发送; 核对授权与</text>
<text x="112" y="2495.2999999999993" font-size="20" class="muted" text-anchor="start">实际结果</text>
<text x="210.0" y="2559.3" font-size="21" class="blue bold" text-anchor="middle">判断与协调</text>
<path d="M210.0 2590.65 L210.0 2613.65" fill="none" stroke="#8492a3" stroke-width="1.6"/>
<path d="M206.0 2608.65 L210.0 2613.65 L214.0 2608.65" fill="none" stroke="#8492a3" stroke-width="1.6"/>
<rect x="20" y="2620.65" width="380" height="106" rx="12" fill="#fafbfd" stroke="#d4dce5"/>
<g transform="translate(40 2645.65) scale(0.75)" fill="none" stroke="#526b91" stroke-width="3" stroke-linecap="round" stroke-linejoin="round"><rect x="16" y="16" width="32" height="32" rx="6"/><path d="M24 6v10m16-10v10M24 48v10m16-10v10M6 24h10M6 40h10m32-16h10M48 40h10M26 26h12v12H26z"/></g>
<text x="108" y="2657.65" font-size="22" class="bold" text-anchor="start">可替换的 AI</text>
<text x="108" y="2696.65" font-size="22" class="blue" text-anchor="start">AI A  →  AI B</text>
<g transform="translate(44 2748.65) scale(0.46875)" fill="none" stroke="#526b91" stroke-width="3" stroke-linecap="round" stroke-linejoin="round"><path d="m12 8 11 11-6 6L6 14c-4 14 6 23 18 17l25 25 7-7-25-25C37 12 28 2 16 6l10 10-7 7"/></g>
<text x="88" y="2770.65" font-size="20" class="" text-anchor="start">工具</text>
<g transform="translate(228 2748.65) scale(0.46875)" fill="none" stroke="#526b91" stroke-width="3" stroke-linecap="round" stroke-linejoin="round"><path d="M16 45a12 12 0 0 1-3-24 17 17 0 0 1 32-3 13 13 0 0 1 3 27H16zM22 52v8m20-8v8"/></g>
<text x="270" y="2770.65" font-size="20" class="" text-anchor="start">服务</text>
<text x="210.0" y="2831.65" font-size="25" class="blue bold" text-anchor="middle">同一个 PA。 不同的 AI。</text>
<text x="210.0" y="2870.4" font-size="22" class="muted" text-anchor="middle">未完工作与证据留在你的环境中。</text>
<path d="M20 2914.1H400" fill="none" stroke="#d4dce5" stroke-width="1.6"/>
<text x="20" y="2950.1" font-size="20" class="muted" text-anchor="start">交互方式与产品方向的示例，并非实际观测</text>
<text x="20" y="2977.1" font-size="20" class="muted" text-anchor="start">的运行，也不代表已发布的集成功能。</text>
</svg>
