<svg xmlns="http://www.w3.org/2000/svg" width="840" height="730" viewBox="0 0 840 730" role="img" aria-labelledby="title desc">
<title id="title">Presence: 소유자 중심의 구조</title><desc id="desc">관계와 상태는 소유자에게 남습니다.</desc>
<style>text{font-family:Arial,"Noto Sans",sans-serif;fill:#243247} .bold{font-weight:700} .muted{fill:#526174} .blue{fill:#245b92}</style>
<rect width="840" height="730" fill="#fff"/>
<text x="20" y="32.0" font-size="23" class="bold" text-anchor="start">Presence: 소유자 중심의 구조</text>
<text x="20" y="68" font-size="16" class="muted" text-anchor="start">개념 설명용 그림</text>
<rect x="20" y="132" width="172" height="110" rx="8" fill="#fff" stroke="#ccd4de"/>
<text x="106" y="175" font-size="23" class="bold" text-anchor="middle">소유자</text>
<text x="106" y="202.0" font-size="16" class="muted" text-anchor="middle">자연스러운 대화</text>
<path d="M198 182H268M203 177L198 182L203 187M263 177L268 182L263 187" fill="none" stroke="#245b92" stroke-width="1.6"/>
<rect x="280" y="90" width="540" height="376" rx="8" fill="#f2f7fc" stroke="#96b6d6"/>
<text x="298" y="122.0" font-size="19" class="bold" text-anchor="start">Personal AgentOS · 소유자가 통제하는 상태</text>
<rect x="298" y="154" width="504" height="56" rx="5" fill="#e4edf8" stroke="#b4c9df"/>
<text x="550.0" y="189" font-size="20" class="bold" text-anchor="middle">PA · 개인 비서</text>
<path d="M550.0 215 L550.0 236" fill="none" stroke="#8492a3" stroke-width="1.6"/>
<path d="M546.0 231 L550.0 236 L554.0 231" fill="none" stroke="#8492a3" stroke-width="1.6"/>
<rect x="298.0" y="246" width="162.66666666666666" height="52" rx="5" fill="#fff" stroke="#ccd8e6"/>
<text x="379.3333333333333" y="279" font-size="18" class="bold" text-anchor="middle">기억</text>
<rect x="468.66666666666663" y="246" width="162.66666666666666" height="52" rx="5" fill="#fff" stroke="#ccd8e6"/>
<text x="550.0" y="279" font-size="18" class="bold" text-anchor="middle">맥락</text>
<rect x="639.3333333333333" y="246" width="162.66666666666666" height="52" rx="5" fill="#fff" stroke="#ccd8e6"/>
<text x="720.6666666666666" y="279" font-size="18" class="bold" text-anchor="middle">작업</text>
<rect x="298.0" y="310" width="162.66666666666666" height="52" rx="5" fill="#fff" stroke="#ccd8e6"/>
<text x="379.3333333333333" y="343" font-size="18" class="bold" text-anchor="middle">권한</text>
<rect x="468.66666666666663" y="310" width="162.66666666666666" height="52" rx="5" fill="#fff" stroke="#ccd8e6"/>
<text x="550.0" y="343" font-size="18" class="bold" text-anchor="middle">증거</text>
<rect x="639.3333333333333" y="310" width="162.66666666666666" height="52" rx="5" fill="#fff" stroke="#ccd8e6"/>
<text x="720.6666666666666" y="343" font-size="18" class="bold" text-anchor="middle">이벤트</text>
<path d="M550.0 366 L550.0 386" fill="none" stroke="#8492a3" stroke-width="1.6"/>
<path d="M546.0 381 L550.0 386 L554.0 381" fill="none" stroke="#8492a3" stroke-width="1.6"/>
<rect x="298" y="396" width="504" height="52" rx="5" fill="#fff" stroke="#b4c9df"/>
<text x="550.0" y="429" font-size="18" class="bold" text-anchor="middle">판단 / 조율</text>
<path d="M550.0 468 L550.0 498" fill="none" stroke="#8492a3" stroke-width="1.6"/>
<path d="M546.0 493 L550.0 498 L554.0 493" fill="none" stroke="#8492a3" stroke-width="1.6"/>
<text x="550.0" y="522" font-size="18" class="muted" text-anchor="middle">교체 가능한 실행 기능</text>
<rect x="280" y="540" width="540" height="76" rx="6" fill="#fff" stroke="#8492a3"/>
<text x="550.0" y="569" font-size="20" class="bold" text-anchor="middle">AI 모델 · A → B</text>
<text x="550.0" y="597" font-size="18" class="muted" text-anchor="middle">도구 / 서비스 / 스킬</text>
<text x="420.0" y="680" font-size="23" class="blue bold" text-anchor="middle">같은 PA, 다른 AI.</text>
<text x="420.0" y="710" font-size="17" class="muted" text-anchor="middle">관계와 상태는 소유자에게 남습니다.</text>
</svg>
